<?xml version="1.0" encoding="utf-8"?>
<!-- Generator: Adobe Illustrator 24.1.0, SVG Export Plug-In . SVG Version: 6.00 Build 0)  -->
<svg version="1.1" id="Laag_1" xmlns="http://www.w3.org/2000/svg" xmlns:xlink="http://www.w3.org/1999/xlink" x="0px" y="0px"
	 viewBox="0 0 223 51" style="enable-background:new 0 0 223 51;" xml:space="preserve">
<style type="text/css">
	.st0{opacity:0.6;fill:#FFFFFF;}
	.st1{opacity:0.6;}
	.st2{fill:#FFFFFF;}
</style>
<path class="st0" d="M140.2,20.7c-3.1,0-4.5,2.9-4.5,2.9v-2.4h-4v16.7h4.2v-11c0.8-1.4,2.2-2.2,3.8-2.3c0.7,0,1.4,0.1,2,0.4l1.5-3.8
	C142.2,20.9,141.2,20.7,140.2,20.7 M120,34.3c-2.9,0-4.6-2.2-4.6-4.8s1.8-4.8,4.6-4.8c2.9,0,4.6,2.2,4.6,4.8S122.8,34.3,120,34.3
	 M120,20.7c-4.8,0.1-8.7,4.1-8.6,8.9s4.1,8.7,8.9,8.6s8.6-4,8.6-8.8s-3.9-8.8-8.7-8.8C120.1,20.7,120,20.7,120,20.7 M96.5,25h3.3
	v7.4c0,3.6,2.5,5.9,5.7,5.9c1.4,0,2.8-0.4,4-1.1l-1.6-3.4c-0.5,0.4-1.1,0.6-1.8,0.6c-1.1,0-2.2-0.6-2.2-2.7V25h5v-3.8h-5v-5h-4.2v5
	h-3.3L96.5,25z M83.8,11.2h-4.2v26.6h4.2v-7.3l6.4,7.3h5.6L87.9,29l7.4-7.9h-5.5l-6,6.6V11.2z M63.8,27.9c0.2-2,2-3.5,4.1-3.4
	c2.8,0,4.1,1.9,4.2,3.4H63.8z M67.9,20.7c-4.8,0-8.4,3.9-8.4,8.8c0,4.8,3.9,8.8,8.8,8.8c0.1,0,0.1,0,0.2,0c2.4,0,4.8-0.9,6.7-2.4
	L73,32.7c-1.3,1.1-2.9,1.7-4.6,1.7c-2.1,0.1-4.1-1.3-4.7-3.4h12.5c0-0.7,0-1.3,0-1.6C76.2,24.3,72.4,20.7,67.9,20.7 M52,37.9h4.2
	V11.2H52V37.9z"/>
<g class="st1">
	<path class="st2" d="M25,1C11.7,1,1,11.7,1,25c0,13.2,10.7,24,24,24c13.2,0,24-10.7,24-24S38.2,1,25,1z M33.3,41.3
		c-1.1,0.6-2.3,1-3.5,1.3c-4.7,1.3-9.8,0.6-14-1.9c-1.8-0.9-3.4-2.2-4.6-3.8c-1.8-2.1-3.1-4.6-3.8-7.2c-2.6-9.8,3.2-19.9,13-22.5
		c1.5-0.4,2.9-0.6,4.5-0.6c8.4-0.1,15.8,5.5,18,13.6c0.2,0.7,0.3,1.4,0.4,2.1L19,28.8c0.6,2.3,2.3,4.2,4.5,5.1s5,1,8.5-0.1
		c5.3-1.7,9.5-6.8,9.5-6.8l1.9-0.3C42.7,32.9,38.9,38.5,33.3,41.3z"/>
	<path class="st2" d="M27.8,14.4c-1.3-0.8-3.1-1-5.3-0.4c-1.8,0.4-3.4,1.4-4.6,2.9c-1,1.4-1.3,3.3-0.8,5.6l13.6-3.7
		C30.2,16.8,29.2,15.2,27.8,14.4z"/>
</g>
<path class="st0" d="M146.4,33.5c1.2,1.9,3.4,3,5.6,2.9c1.8,0,4.3-0.7,4.3-2.9c0-1.9-2-2.5-4.6-3c-3.6-0.8-5.9-2.2-5.9-4.9
	c0-2.4,2.2-4.7,5.9-4.7c2.2-0.1,4.3,0.8,5.9,2.3l-1.2,1.4c-1.3-1.2-2.9-1.9-4.7-1.9c-2.3,0-3.9,1.1-3.9,2.8c0,2,2.2,2.6,5,3.2
	c3.1,0.7,5.6,1.8,5.6,4.8c0,3.2-3.2,4.8-6.3,4.8c-2.8,0.1-5.5-1.3-7.1-3.5L146.4,33.5z"/>
<path class="st0" d="M160.8,21.3h3.6V16h1.9v5.3h5.6V23h-5.6v10c0,1.9,0.7,3.4,2.9,3.4c0.9,0,1.7-0.3,2.5-0.8l0.7,1.6
	c-1,0.6-2.1,0.9-3.3,1c-3.2,0-4.7-2.2-4.7-4.9V23h-3.6L160.8,21.3z"/>
<path class="st0" d="M191.7,29.6c0,4.8-3.5,8.7-8.4,8.7s-8.4-3.9-8.4-8.7s3.5-8.7,8.4-8.7S191.7,24.8,191.7,29.6z M189.7,29.6
	c0-3.8-2.3-6.9-6.5-6.9s-6.5,3.1-6.5,6.9s2.3,6.9,6.5,6.9S189.7,33.3,189.7,29.6z"/>
<path class="st0" d="M204.7,21.3l-0.8,1.8c-0.7-0.3-1.5-0.4-2.2-0.4c-2.9,0-4.2,3.2-4.2,3.2v12h-1.9V21.3h1.7V24
	c0,0,1.4-3.1,4.8-3.1C203,20.8,203.9,21,204.7,21.3z"/>
<path class="st0" d="M222,29.6c0,0.3,0,0.5,0,0.8h-14.3c0.2,3.5,3.1,6.2,6.6,6.1c2.2,0,4.3-1.1,5.7-2.8l1.3,1.3
	c-1.7,2.1-4.2,3.3-6.9,3.4c-4.7,0-8.5-3.8-8.5-8.5c0-0.1,0-0.1,0-0.2c0-4.7,3.2-8.7,8.2-8.7C218.4,20.9,222,24.5,222,29.6z
	 M220,28.6c-0.1-1.9-1.7-5.9-6.1-5.9c-4.6,0-6.1,4.1-6.2,5.9H220z"/>
</svg>
