<?xml version="1.0" encoding="utf-8"?>
<!-- Generator: Adobe Illustrator 24.1.0, SVG Export Plug-In . SVG Version: 6.00 Build 0)  -->
<svg version="1.1" id="Laag_1" xmlns="http://www.w3.org/2000/svg" xmlns:xlink="http://www.w3.org/1999/xlink" x="0px" y="0px"
	 viewBox="0 0 137 46" style="enable-background:new 0 0 137 46;" xml:space="preserve">
<style type="text/css">
	.st0{opacity:0.6;fill:#FFFFFF;}
</style>
<rect x="48.3" y="9.3" class="st0" width="4" height="25.3"/>
<path class="st0" d="M63.4,22c2.7,0,3.9,1.8,4,3.2h-7.9C59.7,23.8,60.8,22,63.4,22L63.4,22z M68.4,29.8c-1.2,1.1-2.8,1.6-4.4,1.6
	c-2.5,0-4.2-1.8-4.5-3.2h11.9c0-0.6,0-1.2,0-1.5c0-4.9-3.7-8.3-8-8.3c-4.6,0-8,3.7-8,8.3s3.7,8.3,8.6,8.3c2.3,0,4.6-0.8,6.4-2.3
	L68.4,29.8z"/>
<polygon class="st0" points="90,34.7 82.5,26.3 89.5,18.8 84.3,18.8 78.6,25 78.6,9.3 74.6,9.3 74.6,34.7 78.6,34.7 78.6,27.7 
	84.7,34.7 "/>
<path class="st0" d="M93.9,29.5c0,3.4,2.3,5.6,5.4,5.6c1.3,0,2.7-0.3,3.8-1l-1.5-3.3c-0.5,0.3-1.1,0.5-1.7,0.6
	c-1.1,0-2.1-0.6-2.1-2.5v-6.4h4.8v-3.6h-4.8v-4.7h-4v4.7h-3.1v3.6h3.1V29.5z"/>
<path class="st0" d="M113.1,31.3c-2.7,0-4.4-2.1-4.4-4.6c0-2.5,1.7-4.6,4.4-4.6c2.7,0,4.4,2.1,4.4,4.6S115.9,31.3,113.1,31.3z
	 M113.1,18.4c-4.7,0-8.5,3.7-8.5,8.3c0,4.7,3.8,8.3,8.5,8.3c4.7,0,8.5-3.7,8.5-8.3S117.9,18.4,113.1,18.4z"/>
<path class="st0" d="M132.4,18.4c-3,0-4.3,2.7-4.3,2.7v-2.3h-3.8v15.9h4V24.3c0,0,1.1-2.1,3.6-2.1c0.7,0,1.3,0.1,1.9,0.4l1.4-3.6
	C134.3,18.6,133.4,18.4,132.4,18.4z"/>
<g>
	<path class="st0" d="M25.3,13.2c-1.2-0.8-2.8-0.9-4.8-0.3c-1.8,0.5-3.2,1.4-4.2,2.7s-1.2,3-0.7,5.1L28,17.3
		C27.4,15.4,26.5,14,25.3,13.2z"/>
	<path class="st0" d="M22.7,1C10.7,1,1,10.8,1,22.9c0,12.1,9.7,21.9,21.7,21.9c12,0,21.7-9.8,21.7-21.9S34.8,1,22.7,1z M27.1,39
		c-4.3,1.2-8.9,0.5-12.7-1.7c-1.6-0.9-3-2-4.2-3.5c-1.7-1.9-2.9-4.2-3.5-6.6C4.3,18.2,9.6,9,18.5,6.7c4.3-1.2,8.8-0.5,12.7,1.7
		c3.8,2.2,6.6,5.9,7.7,10.2c0.2,0.6,0.3,1.2,0.4,1.9l-22,5.9v0c0.8,2.3,2.1,3.9,4.1,4.7c2,0.8,4.6,0.9,7.7-0.1
		c4.8-1.5,8.6-6.2,8.6-6.2l1.7-0.3C38.7,31.3,33.8,37.1,27.1,39z"/>
</g>
</svg>
