<?xml version="1.0" encoding="utf-8"?>
<!-- Generator: Adobe Illustrator 26.0.2, SVG Export Plug-In . SVG Version: 6.00 Build 0)  -->
<svg version="1.1" id="Laag_2" xmlns="http://www.w3.org/2000/svg" xmlns:xlink="http://www.w3.org/1999/xlink" x="0px" y="0px"
	 viewBox="0 0 396.9 96.7" style="enable-background:new 0 0 396.9 96.7;" xml:space="preserve">
<style type="text/css">
	.st0{fill:#E2000F;}
	.st1{fill:#1A1A18;}
	.st2{fill:#FFFFFF;}
	
		.st3{clip-path:url(#SVGID_00000105412811487015289520000014089261218524426422_);fill:url(#SVGID_00000110444971903242855790000014205775248479526542_);}
</style>
<g>
	<polygon class="st0" points="309.5,55 298.5,38 298.5,49 309.5,65.7 320.7,48.8 320.7,72.7 326.8,72.7 326.8,37.1 321.1,37.1 	"/>
	<path class="st0" d="M382.7,52.7v5.7h8.1v7.5c0,0-2.1,1.7-7.2,1.7c-7.2,0-12.5-5.9-12.5-12.7c0-6.9,5.1-12.7,12.3-12.7
		c6.1,0,9,3.7,9,3.7l4.2-4.1c0,0-4.4-5.3-13.2-5.3c-10.4,0-18.5,7.9-18.5,18.4c0,10.5,8.3,18.4,18.7,18.4c8.7,0,13.2-4.5,13.2-4.5
		V52.7H382.7z"/>
	<path class="st0" d="M344,37.1l-13.8,35.6h6.2l3.3-8.5h15.1l3.3,8.5h6.2l-13.9-35.6H344z M341.7,58.7l5.3-13.9l5.3,13.9H341.7z"/>
	<path class="st0" d="M46.3,0C20.7,0,0,20.9,0,46.7c0,25.8,20.7,46.7,46.3,46.7s46.3-20.9,46.3-46.7C92.7,20.9,71.9,0,46.3,0z"/>
	<polygon class="st0" points="162.3,84.2 166.5,88 162.3,91.7 163.8,93.2 169.5,87.9 163.8,82.7 	"/>
	<polygon class="st0" points="229.7,84.2 233.9,88 229.7,91.7 231.2,93.2 236.9,87.9 231.2,82.7 	"/>
</g>
<g>
	<rect x="99.3" y="16.5" class="st1" width="9" height="56.6"/>
	<path class="st1" d="M144,62.1c0,0-3.5,3.6-9.7,3.6c-5.6,0-9.3-4-10-7.2h26.5c0.1-1.3,0.1-2.7,0.1-3.4c0-10.9-8.2-18.5-17.9-18.5
		c-10.3,0-17.8,8.2-17.8,18.6c0,10.4,8.3,18.6,19.1,18.6c8.6,0,14.2-5.1,14.2-5.1L144,62.1z M133,44.8c5.9,0,8.8,4.1,8.9,7.2h-17.6
		C124.7,48.9,127.3,44.8,133,44.8z"/>
	<polygon class="st1" points="192.3,73 175.6,54.3 191.2,37.6 179.6,37.6 166.9,51.6 166.9,16.5 157.9,16.5 157.9,73 166.9,73 
		166.9,57.5 180.4,73 	"/>
	<path class="st1" d="M214.6,65.6c-2.4,0-4.6-1.3-4.6-5.6V45.6h10.7v-8.1H210V27h-9v10.6h-7v8.1h7v15.7c0,7.6,5.2,12.6,12.1,12.6
		c5.2,0,8.5-2.3,8.5-2.3l-3.3-7.3C218.4,64.3,216.7,65.6,214.6,65.6z"/>
	<path class="st1" d="M243.9,36.7c-10.6,0-18.9,8.2-18.9,18.6c0,10.4,8.4,18.6,18.9,18.6c10.6,0,18.9-8.2,18.9-18.6
		C262.8,44.8,254.4,36.7,243.9,36.7z M243.9,65.6c-6.1,0-9.8-4.7-9.8-10.3c0-5.5,3.7-10.3,9.8-10.3c6.1,0,9.8,4.7,9.8,10.3
		C253.7,60.8,250,65.6,243.9,65.6z"/>
	<path class="st1" d="M286.9,36.7c-6.6,0-9.7,6.1-9.7,6.1v-5.2h-8.5V73h9V49.8c0,0,2.5-4.8,7.9-4.8c2.6,0,4.3,0.8,4.3,0.8l3.1-8.1
		C293.1,37.8,290.2,36.7,286.9,36.7z"/>
	<path class="st1" d="M106.9,84.9c0,0-0.8-1.2-2.6-1.2c-2.2,0-4,1.9-4,4.3c0,2.4,1.8,4.3,4,4.3c2,0,2.8-1.4,2.8-1.4v1.2h1.4V78.7
		h-1.5V84.9z M106.9,89.5c0,0-0.8,1.4-2.4,1.4c-1.7,0-2.7-1.3-2.7-2.9c0-1.6,1.1-2.9,2.7-2.9c1.6,0,2.4,1.4,2.4,1.4V89.5z"/>
	<path class="st1" d="M115.6,83.7c-2.5,0-4.1,1.9-4.1,4.3c0,2.4,1.8,4.3,4.3,4.3c2.2,0,3.4-1.6,3.4-1.6l-0.9-1c0,0-0.9,1.2-2.5,1.2
		c-1.5,0-2.7-1.2-2.8-2.4h6.6c0-0.2,0-0.3,0-0.5C119.6,85.4,117.9,83.7,115.6,83.7z M113,87.3c0.1-0.9,0.8-2.2,2.6-2.2
		c1.7,0,2.5,1.3,2.5,2.2H113z"/>
	<path class="st1" d="M125.8,87.4c-1.4-0.3-2-0.6-2-1.2c0-0.5,0.5-1,1.6-1c1.2,0,2.1,0.9,2.1,0.9l1-1c0,0-1.1-1.2-3-1.2
		c-1.8,0-3,1.2-3,2.4c0,1.5,1.2,2.2,3,2.6c1.3,0.2,1.9,0.6,1.9,1.3c0,0.7-0.9,1-1.8,1c-1.6,0-2.5-1.3-2.5-1.3l-1,1
		c0,0,1.2,1.7,3.5,1.7c1.6,0,3.3-0.8,3.3-2.4C128.7,88.3,127.4,87.7,125.8,87.4z"/>
	<rect x="132" y="83.9" class="st1" width="1.5" height="8.2"/>
	<circle class="st1" cx="132.8" cy="81.3" r="1"/>
	<path class="st1" d="M143.4,85.1c0,0-0.8-1.4-2.8-1.4c-2.2,0-4,1.9-4,4.3c0,2.4,1.8,4.3,4,4.3c1.5,0,2.4-0.9,2.6-1.2v1.1
		c0,1.8-1.1,2.8-2.8,2.8c-1.7,0-2.7-1.3-2.7-1.3l-0.9,1.1c0,0,1.3,1.6,3.6,1.6c2.4,0,4.3-1.4,4.3-4.3v-8.2h-1.4V85.1z M143.2,89.6
		c0,0-0.8,1.4-2.4,1.4c-1.7,0-2.7-1.3-2.7-2.9s1-2.9,2.7-2.9c1.6,0,2.4,1.4,2.4,1.4V89.6z"/>
	<path class="st1" d="M152.1,83.7c-1.8,0-2.5,1.4-2.5,1.4v-1.2h-1.4v8.2h1.5v-5.6c0,0,0.7-1.4,2-1.4c1.1,0,2,0.6,2,2v5h1.5v-5.3
		C155.2,84.8,153.7,83.7,152.1,83.7z"/>
	<path class="st1" d="M180.3,87.4c-1.3-0.3-2-0.6-2-1.2c0-0.5,0.5-1,1.6-1c1.2,0,2.1,0.9,2.1,0.9l1-1c0,0-1.1-1.2-3-1.2
		c-1.8,0-3,1.2-3,2.4c0,1.5,1.2,2.2,3,2.6c1.3,0.2,1.9,0.6,1.9,1.3c0,0.7-0.9,1-1.8,1c-1.6,0-2.5-1.3-2.5-1.3l-1,1
		c0,0,1.2,1.7,3.5,1.7c1.6,0,3.3-0.8,3.3-2.4C183.2,88.3,181.8,87.7,180.3,87.4z"/>
	<path class="st1" d="M190.4,83.7c-1.4,0-2.2,0.9-2.4,1.2v-6.2h-1.5v13.4h1.5v-5.6c0,0,0.7-1.4,2-1.4c1.1,0,2,0.6,2,2v5h1.5v-5.3
		C193.5,84.8,192,83.7,190.4,83.7z"/>
	<path class="st1" d="M200.1,83.7c-1.8,0-3.1,0.8-3.1,0.8l0.6,1.2c0,0,1.2-0.7,2.5-0.7c0.7,0,2.1,0.2,2.1,1.9v0.4c0,0-1-0.7-2.5-0.7
		c-1.8,0-3.3,1.1-3.3,2.7c0,1.8,1.6,2.8,3.1,2.8c1.9,0,2.8-1.4,2.8-1.4v1.2h1.4v-5.4C203.7,85.2,202.6,83.7,200.1,83.7z M202.2,89.8
		c0,0-0.9,1.2-2.3,1.2c-0.9,0-1.9-0.4-1.9-1.5c0-0.9,0.8-1.5,2.1-1.5c1.3,0,2.1,0.6,2.1,0.6V89.8z"/>
	<path class="st1" d="M208.5,85.2v-1.3h-1.4v8.2h1.5v-5.6c0,0,0.6-1.4,1.9-1.4c0.6,0,0.9,0.2,0.9,0.2l0.6-1.4c0,0-0.5-0.2-1.2-0.2
		C209.3,83.7,208.5,85.2,208.5,85.2z"/>
	<path class="st1" d="M217.6,83.7c-2.5,0-4.1,1.9-4.1,4.3c0,2.4,1.8,4.3,4.3,4.3c2.2,0,3.4-1.6,3.4-1.6l-0.9-1c0,0-0.9,1.2-2.5,1.2
		c-1.5,0-2.7-1.2-2.8-2.4h6.6c0-0.2,0-0.3,0-0.5C221.6,85.4,219.9,83.7,217.6,83.7z M215,87.3c0.1-0.9,0.8-2.2,2.6-2.2
		c1.7,0,2.5,1.3,2.5,2.2H215z"/>
	<path class="st1" d="M246.3,83.7c-2.5,0-4.1,1.9-4.1,4.3c0,2.4,1.8,4.3,4.3,4.3c2.2,0,3.4-1.6,3.4-1.6l-0.9-1c0,0-0.9,1.2-2.5,1.2
		c-1.5,0-2.7-1.2-2.8-2.4h6.6c0-0.2,0-0.3,0-0.5C250.3,85.4,248.6,83.7,246.3,83.7z M243.7,87.3c0.1-0.9,0.8-2.2,2.6-2.2
		c1.7,0,2.5,1.3,2.5,2.2H243.7z"/>
	<path class="st1" d="M256.4,83.7c-1.8,0-3.1,0.8-3.1,0.8l0.6,1.2c0,0,1.2-0.7,2.5-0.7c0.7,0,2.1,0.2,2.1,1.9v0.4c0,0-1-0.7-2.5-0.7
		c-1.8,0-3.3,1.1-3.3,2.7c0,1.8,1.6,2.8,3.1,2.8c1.9,0,2.8-1.4,2.8-1.4v1.2h1.4v-5.4C260,85.2,258.8,83.7,256.4,83.7z M258.5,89.8
		c0,0-0.9,1.2-2.3,1.2c-0.9,0-1.9-0.4-1.9-1.5c0-0.9,0.8-1.5,2.1-1.5c1.3,0,2.1,0.6,2.1,0.6V89.8z"/>
	<path class="st1" d="M264.8,85.2v-1.3h-1.4v8.2h1.5v-5.6c0,0,0.6-1.4,1.9-1.4c0.6,0,0.9,0.2,0.9,0.2l0.6-1.4c0,0-0.5-0.2-1.2-0.2
		C265.5,83.7,264.8,85.2,264.8,85.2z"/>
	<path class="st1" d="M274.5,83.7c-1.8,0-2.5,1.4-2.5,1.4v-1.2h-1.4v8.2h1.5v-5.6c0,0,0.7-1.4,2-1.4c1.1,0,2,0.6,2,2v5h1.5v-5.3
		C277.5,84.8,276.1,83.7,274.5,83.7z"/>
</g>
<g>
	<path class="st2" d="M34.5,54l47-12.7c-0.2-1.3-0.5-2.7-0.8-4c-4.3-16.1-18.9-26.7-34.8-26.5c-2.8,0-5.7,0.4-8.6,1.2
		C18.3,17.2,7.1,36.8,12.2,55.8c1.4,5.4,4,10.2,7.5,14.2c2.5,3.1,5.4,5.6,8.9,7.4c7.9,4.6,17.5,6.2,27,3.7c2.4-0.6,4.7-1.5,6.8-2.6
		C73.4,72.9,80.6,62,81.7,50l-3.6,0.5c0,0-8.1,10-18.4,13.3c-6.7,2.1-12.3,1.9-16.4,0.2C39,62.2,36.1,58.9,34.5,54 M31.2,42
		c-0.9-4.6-0.4-8.2,1.6-11s4.9-4.6,8.8-5.7c4.2-1.1,7.6-0.9,10.2,0.7c2.6,1.6,4.5,4.6,5.7,8.8L31.2,42z"/>
</g>
<g>
	<defs>
		<rect id="SVGID_1_" x="297.7" y="18.7" width="0.7" height="74.8"/>
	</defs>
	<clipPath id="SVGID_00000147210732092152533900000009058584317034423704_">
		<use xlink:href="#SVGID_1_"  style="overflow:visible;"/>
	</clipPath>
	
		<linearGradient id="SVGID_00000027568112908241198620000011851315854594427045_" gradientUnits="userSpaceOnUse" x1="7.7484" y1="613.1" x2="8.7255" y2="613.1" gradientTransform="matrix(0 -76.5354 -76.5354 0 47221.9219 686.459)">
		<stop  offset="0" style="stop-color:#FFFFFF"/>
		<stop  offset="0.25" style="stop-color:#1A1A18"/>
		<stop  offset="0.75" style="stop-color:#1A1A18"/>
		<stop  offset="1" style="stop-color:#FFFFFF"/>
	</linearGradient>
	
		<rect x="297.7" y="18.7" style="clip-path:url(#SVGID_00000147210732092152533900000009058584317034423704_);fill:url(#SVGID_00000027568112908241198620000011851315854594427045_);" width="0.7" height="74.8"/>
</g>
</svg>
