<?xml version="1.0" encoding="utf-8"?>
<!-- Generator: Adobe Illustrator 24.1.0, SVG Export Plug-In . SVG Version: 6.00 Build 0)  -->
<svg version="1.1" id="Laag_1" xmlns="http://www.w3.org/2000/svg" xmlns:xlink="http://www.w3.org/1999/xlink" x="0px" y="0px"
	 viewBox="0 0 25 25" style="enable-background:new 0 0 25 25;" xml:space="preserve">
<style type="text/css">
	.st0{opacity:0.6;}
	.st1{fill-rule:evenodd;clip-rule:evenodd;fill:#FFFFFF;}
</style>
<g id="Insta" class="st0">
	<path class="st1" d="M18.6,5c-0.8,0-1.4,0.6-1.4,1.4s0.6,1.4,1.4,1.4S20,7.2,20,6.4S19.4,5,18.6,5z M12.5,8.7
		c2.1,0,3.8,1.7,3.8,3.8s-1.7,3.8-3.8,3.8s-3.8-1.7-3.8-3.8C8.7,10.4,10.4,8.7,12.5,8.7z M12.5,6.6c-3.3,0-5.9,2.6-5.9,5.9
		s2.6,5.9,5.9,5.9s5.9-2.6,5.9-5.9C18.4,9.3,15.8,6.6,12.5,6.6z M13.6,1c2.1,0,2.6,0,3.6,0.1c1.2,0.1,2.1,0.3,2.8,0.5
		c0.8,0.3,1.4,0.7,2,1.3s1,1.3,1.3,2s0.5,1.6,0.5,2.8c0,1.1,0.1,1.5,0.1,3.6v2.3c0,2.1,0,2.5-0.1,3.6c-0.1,1.2-0.3,2.1-0.5,2.8
		c-0.3,0.8-0.7,1.4-1.3,2c-0.6,0.6-1.3,1-2,1.3s-1.6,0.5-2.8,0.5C16,24,15.6,24,12.5,24S9,24,7.8,23.9S5.7,23.6,5,23.4
		c-0.8-0.3-1.4-0.7-2-1.3s-1-1.3-1.3-2s-0.5-1.6-0.5-2.8C1,16.2,1,15.7,1,13.6v-2.3c0-2.1,0-2.5,0.1-3.6c0-1.2,0.2-2,0.5-2.7
		c0.3-0.8,0.7-1.4,1.3-2s1.3-1,2-1.3s1.6-0.5,2.8-0.5C8.8,1,9.3,1,11.4,1H13.6z M12.5,3.1c3.1,0,3.4,0,4.6,0.1
		c1.1,0.1,1.7,0.2,2.1,0.4c0.5,0.2,0.9,0.5,1.3,0.9s0.7,0.8,0.9,1.3c0.2,0.4,0.3,1,0.4,2.1c0.1,1.2,0.1,1.6,0.1,4.6
		c0,3.1,0,3.4-0.1,4.6c-0.1,1.1-0.2,1.7-0.4,2.1c-0.2,0.5-0.5,0.9-0.9,1.3s-0.8,0.7-1.3,0.9c-0.4,0.2-1,0.3-2.1,0.4
		c-1.2,0.1-1.6,0.1-4.6,0.1c-3.1,0-3.4,0-4.6-0.1c-1.1-0.1-1.7-0.2-2.1-0.4c-0.5-0.2-0.9-0.5-1.3-0.9s-0.7-0.8-0.9-1.3
		c-0.2-0.4-0.3-1-0.4-2.1c-0.1-1.2-0.1-1.6-0.1-4.6c0-3.1,0-3.4,0.1-4.6c0.1-1.1,0.2-1.7,0.4-2.1c0.1-0.6,0.4-1,0.8-1.4
		s0.8-0.7,1.3-0.9c0.4-0.2,1-0.3,2.1-0.4C9.1,3.1,9.4,3.1,12.5,3.1"/>
</g>
</svg>
