<?xml version="1.0" encoding="utf-8"?>
<!-- Generator: Adobe Illustrator 24.1.0, SVG Export Plug-In . SVG Version: 6.00 Build 0)  -->
<svg version="1.1" id="Laag_1" xmlns="http://www.w3.org/2000/svg" xmlns:xlink="http://www.w3.org/1999/xlink" x="0px" y="0px"
	 viewBox="0 0 27 27" style="enable-background:new 0 0 27 27;" xml:space="preserve">
<style type="text/css">
	.st0{fill-rule:evenodd;clip-rule:evenodd;fill:#FFFFFF;}
	.st1{fill-rule:evenodd;clip-rule:evenodd;fill:#E4231E;}
</style>
<circle class="st0" cx="13.5" cy="13.5" r="12.5"/>
<path class="st1" d="M13.06,19c-3.05,0-5.54-2.47-5.54-5.5C7.52,10.47,10,8,13.06,8c1.31,0,2.51,0.46,3.46,1.22l-1.68,1.44
	c-0.42,0.36-0.22,1.04,0.33,1.12L20,12.49c0.53,0.08,1-0.33,1-0.86l-0.01-4.85c0-0.55-0.65-0.85-1.07-0.49l-1.47,1.26
	c-1.43-1.28-3.32-2.06-5.39-2.06C8.61,5.5,5,9.08,5,13.5c0,4.42,3.61,8,8.06,8c2.97,0,5.56-1.6,6.96-3.97
	c0.36-0.62-0.02-1.41-0.74-1.52l-0.51-0.08c-0.41-0.06-0.81,0.13-1.02,0.47C16.77,17.96,15.03,19,13.06,19"/>
</svg>
