<?xml version="1.0" encoding="utf-8"?>
<!-- Generator: Adobe Illustrator 24.1.0, SVG Export Plug-In . SVG Version: 6.00 Build 0)  -->
<svg version="1.1" id="Laag_1" xmlns="http://www.w3.org/2000/svg" xmlns:xlink="http://www.w3.org/1999/xlink" x="0px" y="0px"
	 viewBox="0 0 84 39" style="enable-background:new 0 0 84 39;" xml:space="preserve">
<style type="text/css">
	.st0{opacity:0.6;fill-rule:evenodd;clip-rule:evenodd;fill:#FFFFFF;}
</style>
<path class="st0" d="M22.1,1.5l-7.8,18.6l0.8-18.6C14.2,1.2,13.3,1,12.4,1C7,1,1.1,5.9,1.1,10.4c0,2.3,1.5,3.2,3.8,3.2
	c0-0.3-0.5-0.6-0.5-2.4c0-4,2.1-6.8,5.7-7.9L1,27.4h2.8l5.9-15.9L9.1,27.4h4.9l6.7-15.8l-2.3,15.8h5.1l3.7-25.9H22.1z"/>
<path class="st0" d="M52.4,22c-0.4,1.7-1.8,2.6-2.7,2.6c-0.6,0-1.7,0-1.7-2.7c0-3.2,1.9-9.4,4.8-9.4c1,0,1.3,0.8,1.4,1.2L52.4,22z
	 M50.5,30.5c-0.4,2-1.3,2.7-2,2.7c-0.8,0-1.4-0.6-1.4-1.1c0-1.8,1.6-2.8,3.8-3.6L50.5,30.5z M35.1,21.5c-0.4,2-1.8,3-2.8,3
	c-0.6,0-1.7,0-1.7-2.7c0-3.2,1.9-9.4,4.8-9.4c1.1,0,1.4,0.9,1.4,1.3L35.1,21.5z M62.1,10.1l-3.8,17.5h4.9l2.1-9.7h0.2
	c6.2,0,9.9-4.8,9.9-9.1c0-3.5-2.5-6.7-8.1-6.7c-2.9,0-5.9,1.1-8.2,2.8C59,4.9,58.8,5,58.6,5.2c-0.3,0.3-0.6,0.5-0.8,0.7c0,0,0,0,0,0
	c-2.6,2.5-3,4.6-3,4.6l-0.3,1.6c0-1.1-0.8-1.8-2.8-1.8c-6,0-8.8,7.3-8.8,11.9c0,0.5,0,0.9,0.1,1.4c-0.5,0.6-1,1-1.7,1
	c-1,0-1.4-0.5-1.4-1.5c0-0.3,0-0.6,0.1-1.1l2.5-11.6h-4.9l-0.4,1.8v-0.2c0-1-0.8-1.7-2.8-1.7c-6,0-8.8,7.3-8.8,11.9
	c0,4.1,2.2,5.5,4.6,5.5c2.4,0,4-1.6,5.1-3.1c0.2,2,1.4,3.1,3.4,3.1c1.3,0,3.2-0.4,4.9-2.5c0.8,1.8,2.4,2.5,4,2.5
	c1.8,0,3.1-0.9,4.1-1.9l-0.3,1.4c-3.3,1-5.9,1.9-5.9,5.1c0,2.2,2,3.7,4,3.7c2.3,0,5.2-0.9,6.2-5.8l3.4-16.1c0,0,0,0,0,0c0,0,0,0,0,0
	l0.8-3.6c0,0,1.1-6.1,5.9-6.9c0.5-0.1,1.1-0.1,1.7-0.1c3,0,4.2,2.1,4.2,4.6c0,3.7-2.5,8.1-6,8.4L68,5.4C63.2,5,62.1,10.1,62.1,10.1z
	"/>
<path class="st0" d="M81.4,2.6c1.5,1,1.7,3.1,0.6,4.8c-1.1,1.7-3.2,2.3-4.7,1.4c-1.5-1-1.7-3.1-0.6-4.8C77.9,2.2,80,1.6,81.4,2.6"/>
<path class="st0" d="M80.9,9.9h-4.8l-2.3,11.2c-0.2,0.8-0.3,1.6-0.3,2.3c0,2.9,1.6,4.2,3.6,4.2c1.8,0,3.5-1.1,3.7-3.6
	c-0.2,0.1-0.5,0.2-1.1,0.2c-0.9,0-1.4-0.3-1.4-1.3c0-0.3,0-0.7,0.1-1.1L80.9,9.9z"/>
</svg>
