<?xml version="1.0" encoding="utf-8"?>
<!-- Generator: Adobe Illustrator 24.1.0, SVG Export Plug-In . SVG Version: 6.00 Build 0)  -->
<svg version="1.1" id="mastercard" xmlns="http://www.w3.org/2000/svg" xmlns:xlink="http://www.w3.org/1999/xlink" x="0px" y="0px"
	 viewBox="0 0 47 37" style="enable-background:new 0 0 47 37;" xml:space="preserve">
<style type="text/css">
	.st0{opacity:0.8;}
	.st1{fill-rule:evenodd;clip-rule:evenodd;fill:#FFFFFF;}
	.st2{opacity:0.6;fill:#FFFFFF;enable-background:new    ;}
	.st3{opacity:0.6;}
	.st4{opacity:0.7;fill:#FFFFFF;enable-background:new    ;}
</style>
<g id="export-badges" class="st0">
	<g id="production" transform="translate(-1062.000000, -288.000000)">
		<g id="card_master" transform="translate(1062.000000, 288.000000)">
			<g id="logo" transform="translate(22.000000, 10.000000)">
				<path id="Fill-4" class="st1" d="M23.6,13.5V13h-0.1l-0.2,0.4L23.1,13H23v0.5h0.1v-0.4l0.2,0.4h0.1l0.2-0.4L23.6,13.5L23.6,13.5
					z M22.7,13.5v-0.4h0.2V13h-0.5v0.1h0.2L22.7,13.5L22.7,13.5L22.7,13.5z"/>
				<g>
					<path class="st2" d="M-3.8,4.9c0-4.4,2.1-8.4,5.3-10.9c-2.4-1.9-5.4-3-8.6-3C-14.8-9-21-2.8-21,4.9s6.2,13.9,13.9,13.9
						c3.2,0,6.2-1.1,8.6-3C-1.7,13.3-3.8,9.3-3.8,4.9z"/>
					<path class="st2" d="M10.1-9C6.9-9,3.9-7.9,1.5-6C4.7-3.5,6.8,0.5,6.8,4.9s-2.1,8.4-5.3,10.9c2.4,1.9,5.4,3,8.6,3
						c7.7,0,13.9-6.2,13.9-13.9S17.8-9,10.1-9z"/>
				</g>
			</g>
			<g id="text" transform="translate(26.000000, 61.000000)" class="st3">
				<path id="XMLID_1775_" class="st1" d="M-16.4-25.1v-2.3c0-0.9-0.5-1.4-1.4-1.4c-0.5,0-0.9,0.2-1.3,0.6c-0.3-0.4-0.6-0.6-1.2-0.6
					c-0.4,0-0.8,0.1-1.1,0.5v-0.5h-0.8v3.6h0.8v-2c0-0.6,0.3-0.9,0.9-0.9s0.8,0.3,0.8,0.9v2h0.8v-2c0-0.6,0.4-0.9,0.9-0.9
					s0.8,0.3,0.8,0.9v2L-16.4-25.1L-16.4-25.1z M-4.6-28.8h-1.3v-1.1h-0.8v1.1h-0.7v0.7h0.7v1.7c0,0.8,0.3,1.3,1.2,1.3
					c0.3,0,0.7-0.1,1-0.3L-4.7-26c-0.2,0.2-0.5,0.2-0.7,0.2c-0.4,0-0.5-0.2-0.5-0.6V-28h1.3C-4.6-28-4.6-28.8-4.6-28.8z M2.1-28.8
					c-0.5,0-0.8,0.2-0.9,0.5v-0.5H0.3v3.6h0.8v-2c0-0.6,0.3-0.9,0.8-0.9c0.2,0,0.3,0,0.5,0.1l0.2-0.8C2.4-28.8,2.2-28.8,2.1-28.8
					L2.1-28.8z M-8.1-28.5c-0.4-0.3-0.9-0.4-1.5-0.4c-0.9,0-1.5,0.5-1.5,1.2c0,0.6,0.5,0.9,1.2,1.1h0.4c0.4,0.1,0.6,0.2,0.6,0.4
					c0,0.3-0.3,0.5-0.8,0.5s-0.9-0.2-1.2-0.4l-0.4,0.6c0.4,0.3,1,0.5,1.5,0.5c1.1,0,1.7-0.5,1.7-1.2c0-0.6-0.5-1-1.2-1.1h-0.4
					c-0.3,0-0.6-0.1-0.6-0.3c0-0.3,0.3-0.4,0.7-0.4c0.5,0,0.9,0.2,1.1,0.3L-8.1-28.5z M13-28.8c-0.5,0-0.8,0.2-0.9,0.5v-0.5h-0.8
					v3.6H12v-2c0-0.6,0.3-0.9,0.8-0.9c0.2,0,0.3,0,0.5,0.1l0.2-0.8C13.3-28.8,13.1-28.8,13-28.8L13-28.8z M2.9-26.9
					c0,1.1,0.8,1.9,1.9,1.9c0.5,0,0.9-0.1,1.3-0.4L5.7-26c-0.3,0.2-0.6,0.3-0.9,0.3c-0.6,0-1.1-0.5-1.1-1.2s0.5-1.1,1.1-1.2
					c0.3,0,0.6,0.1,0.9,0.3l0.4-0.6c-0.4-0.3-0.8-0.4-1.3-0.4C3.6-28.8,2.9-28,2.9-26.9L2.9-26.9z M10.2-26.9v-1.8H9.4v0.5
					c-0.3-0.3-0.6-0.5-1.1-0.5c-1,0-1.8,0.8-1.8,1.9s0.8,1.9,1.8,1.9c0.5,0,0.9-0.2,1.1-0.5v0.5h0.8V-26.9z M7.3-26.9
					c0-0.6,0.4-1.2,1.1-1.2c0.6,0,1.1,0.5,1.1,1.2c0,0.6-0.5,1.2-1.1,1.2C7.7-25.8,7.3-26.3,7.3-26.9L7.3-26.9z M-2.2-28.8
					C-3.3-28.8-4-28-4-26.9S-3.2-25-2.2-25c0.5,0,1.1-0.2,1.5-0.5l-0.4-0.6c-0.3,0.2-0.7,0.4-1.1,0.4c-0.5,0-1-0.2-1.1-0.9h2.7v-0.3
					C-0.5-28.1-1.2-28.8-2.2-28.8L-2.2-28.8z M-2.2-28.2c0.5,0,0.8,0.3,0.9,0.9h-1.9C-3.1-27.8-2.8-28.2-2.2-28.2L-2.2-28.2z
					 M17.4-26.9v-3.3h-0.8v1.9c-0.3-0.3-0.6-0.5-1.1-0.5c-1,0-1.8,0.8-1.8,1.9s0.8,1.9,1.8,1.9c0.5,0,0.9-0.2,1.1-0.5v0.5h0.8V-26.9
					z M14.5-26.9c0-0.6,0.4-1.2,1.1-1.2c0.6,0,1.1,0.5,1.1,1.2c0,0.6-0.5,1.2-1.1,1.2C14.9-25.8,14.5-26.3,14.5-26.9L14.5-26.9z
					 M-11.9-26.9v-1.8h-0.8v0.5c-0.3-0.3-0.6-0.5-1.1-0.5c-1,0-1.8,0.8-1.8,1.9s0.8,1.9,1.8,1.9c0.5,0,0.9-0.2,1.1-0.5v0.5h0.8
					V-26.9z M-14.9-26.9c0-0.6,0.4-1.2,1.1-1.2c0.6,0,1.1,0.5,1.1,1.2c0,0.6-0.5,1.2-1.1,1.2C-14.4-25.8-14.9-26.3-14.9-26.9z"/>
				<path id="Fill-1" class="st1" d="M18.6-25.3L18.6-25.3L18.6-25.3c0.1,0.1,0.1,0.1,0.1,0.1l0,0l0,0
					C18.7-25.3,18.6-25.3,18.6-25.3L18.6-25.3z M18.6-25.3C18.7-25.3,18.7-25.3,18.6-25.3c0.1,0,0.1,0.1,0.1,0.1s0,0,0,0.1
					c0,0,0,0-0.1,0l0.1,0.1h-0.1l-0.1-0.1l0,0v0.1h-0.1v-0.3C18.4-25.3,18.6-25.3,18.6-25.3z M18.6-25C18.6-25,18.7-25,18.6-25
					c0.1,0,0.1,0,0.2-0.1c0,0,0,0,0-0.1v-0.1v-0.1v-0.1c0,0,0,0-0.1,0h-0.1h-0.1h-0.1c0,0,0,0,0,0.1v0.1v0.1v0.1
					C18.5-25,18.5-25,18.6-25C18.5-25,18.6-25,18.6-25z M18.6-25.5h0.1c0,0,0.1,0,0.1,0.1c0,0,0,0.1,0.1,0.1v0.1v0.1
					c0,0,0,0.1-0.1,0.1c0,0-0.1,0-0.1,0.1h-0.1h-0.1c0,0-0.1,0-0.1-0.1c0,0,0-0.1-0.1-0.1v-0.1v-0.1c0,0,0-0.1,0.1-0.1
					c0,0,0.1,0,0.1-0.1H18.6z"/>
			</g>
		</g>
	</g>
</g>
<path class="st4" d="M28.8,14.9c0-4.4-2.1-8.4-5.3-10.9c-3.2,2.5-5.3,6.5-5.3,10.9s2.1,8.4,5.3,10.9C26.7,23.3,28.8,19.3,28.8,14.9z
	"/>
</svg>
