<?xml version="1.0" encoding="utf-8"?>
<!-- Generator: Adobe Illustrator 24.1.0, SVG Export Plug-In . SVG Version: 6.00 Build 0)  -->
<svg version="1.1" id="Laag_1" xmlns:sketch="http://www.bohemiancoding.com/sketch/ns"
	 xmlns="http://www.w3.org/2000/svg" xmlns:xlink="http://www.w3.org/1999/xlink" x="0px" y="0px" viewBox="0 0 77 22"
	 style="enable-background:new 0 0 77 22;" xml:space="preserve">
<style type="text/css">
	.st0{opacity:0.6;}
	.st1{fill-rule:evenodd;clip-rule:evenodd;fill:#FFFFFF;}
</style>
<desc>Created with Sketch.</desc>
<g id="assets-various" sketch:type="MSPage" class="st0">
	<g id="Artboard-2" transform="translate(-36.000000, -531.000000)" sketch:type="MSArtboardGroup">
		<g id="card_paypal" transform="translate(36.000000, 531.000000)" sketch:type="MSLayerGroup">
			<path id="Shape" sketch:type="MSShapeGroup" class="st1" d="M52.3,6.5c-0.3,2.1-1.9,2.1-3.5,2.1h-0.9l0.6-3.9
				c0-0.2,0.2-0.4,0.5-0.4h0.4c1.1,0,2,0,2.6,0.6C52.3,5.2,52.4,5.7,52.3,6.5 M51.6,1h-5.8C45.4,1,45,1.3,45,1.7l-2.4,14.9
				c0,0.3,0.2,0.6,0.5,0.6h3c0.3,0,0.5-0.2,0.6-0.5l0.7-4.2c0.1-0.4,0.4-0.7,0.8-0.7H50c3.8,0,6.1-1.9,6.6-5.5
				c0.3-1.6,0-2.9-0.7-3.8C55,1.5,53.6,1,51.6,1"/>
			<path id="Shape_1_" sketch:type="MSShapeGroup" class="st1" d="M10.7,6.5c-0.3,2.1-1.9,2.1-3.5,2.1H6.3l0.6-3.9
				c0-0.2,0.2-0.4,0.5-0.4h0.4c1.1,0,2,0,2.6,0.6C10.7,5.2,10.8,5.7,10.7,6.5 M10,1H4.2C3.8,1,3.4,1.3,3.4,1.7L1,16.6
				c0,0.3,0.2,0.6,0.5,0.6h2.8c0.4,0,0.7-0.3,0.8-0.7l0.6-4c0.1-0.4,0.4-0.7,0.8-0.7h1.8c3.8,0,6.1-1.9,6.6-5.5
				c0.3-1.6,0-2.9-0.7-3.8C13.4,1.5,12,1,10,1"/>
			<path id="Shape_2_" sketch:type="MSShapeGroup" class="st1" d="M23.5,11.8c-0.3,1.6-1.5,2.7-3.2,2.7c-0.8,0-1.5-0.3-1.9-0.8
				c-0.4-0.5-0.6-1.2-0.4-2c0.3-1.6,1.5-2.7,3.1-2.7c0.8,0,1.4,0.3,1.9,0.8C23.5,10.4,23.7,11.1,23.5,11.8 M27.4,6.4h-2.8
				c-0.2,0-0.4,0.2-0.5,0.4L24,7.6l-0.2-0.3c-0.6-0.9-2-1.2-3.3-1.2c-3.1,0-5.7,2.3-6.2,5.6c-0.3,1.6,0.1,3.2,1,4.3
				c0.9,1,2.1,1.4,3.5,1.4c2.5,0,3.9-1.6,3.9-1.6l-0.1,0.8c0,0.3,0.2,0.6,0.5,0.6h2.5c0.4,0,0.7-0.3,0.8-0.7L27.9,7
				C28,6.7,27.7,6.4,27.4,6.4"/>
			<path id="Shape_3_" sketch:type="MSShapeGroup" class="st1" d="M65.2,11.8c-0.3,1.6-1.5,2.7-3.2,2.7c-0.8,0-1.5-0.3-1.9-0.8
				c-0.4-0.5-0.6-1.2-0.4-2c0.3-1.6,1.5-2.7,3.1-2.7c0.8,0,1.4,0.3,1.9,0.8C65.1,10.4,65.3,11.1,65.2,11.8 M69,6.4h-2.8
				c-0.2,0-0.4,0.2-0.5,0.4l-0.1,0.8l-0.2-0.3c-0.6-0.9-2-1.2-3.3-1.2c-3.1,0-5.7,2.3-6.2,5.6c-0.3,1.6,0.1,3.2,1,4.3
				c0.9,1,2.1,1.4,3.5,1.4c2.5,0,3.9-1.6,3.9-1.6l-0.1,0.8c0,0.3,0.2,0.6,0.5,0.6h2.5c0.4,0,0.7-0.3,0.8-0.7L69.5,7
				C69.6,6.7,69.3,6.4,69,6.4"/>
			<path id="Shape_4_" sketch:type="MSShapeGroup" class="st1" d="M42.3,6.4h-2.8c-0.3,0-0.5,0.1-0.7,0.4L35,12.4L33.3,7
				c-0.1-0.3-0.4-0.6-0.8-0.6h-2.8c-0.3,0-0.6,0.3-0.5,0.6l3.1,9.1l-2.9,4.1c-0.2,0.3,0,0.8,0.4,0.8h2.8c0.3,0,0.5-0.1,0.7-0.3
				l9.3-13.5C42.9,6.8,42.7,6.4,42.3,6.4"/>
			<path id="Shape_5_" sketch:type="MSShapeGroup" class="st1" d="M72.3,1.4l-2.4,15.2c0,0.3,0.2,0.6,0.5,0.6h2.4
				c0.4,0,0.7-0.3,0.8-0.7L76,1.6C76,1.3,75.8,1,75.5,1h-2.7C72.6,1,72.4,1.2,72.3,1.4"/>
		</g>
	</g>
</g>
</svg>
