<?xml version="1.0" encoding="utf-8"?>
<!-- Generator: Adobe Illustrator 24.1.0, SVG Export Plug-In . SVG Version: 6.00 Build 0)  -->
<svg version="1.1" id="Laag_1" xmlns="http://www.w3.org/2000/svg" xmlns:xlink="http://www.w3.org/1999/xlink" x="0px" y="0px"
	 viewBox="0 0 38 38" style="enable-background:new 0 0 38 38;" xml:space="preserve">
<style type="text/css">
	.st0{fill-rule:evenodd;clip-rule:evenodd;fill:#E4231E;}
</style>
<path class="st0" d="M19.13,31.37c-6.87,0-12.46-5.55-12.46-12.37c0-6.82,5.59-12.37,12.46-12.37c2.95,0,5.65,1.03,7.78,2.74
	l-3.77,3.24c-0.94,0.81-0.49,2.35,0.74,2.53l10.87,1.59C35.94,16.9,37,15.98,37,14.8L36.98,3.89c0-1.24-1.47-1.9-2.41-1.09
	l-3.3,2.84C28.05,2.75,23.8,1,19.13,1C9.12,1,1,9.06,1,19c0,9.94,8.12,18,18.13,18c6.68,0,12.52-3.59,15.66-8.93
	c0.82-1.4-0.05-3.17-1.66-3.41l-1.16-0.17c-0.91-0.13-1.81,0.29-2.3,1.07C27.47,29.04,23.57,31.37,19.13,31.37"/>
</svg>
