<?xml version="1.0" encoding="utf-8"?>
<!-- Generator: Adobe Illustrator 24.1.0, SVG Export Plug-In . SVG Version: 6.00 Build 0)  -->
<svg version="1.1" id="Laag_1" xmlns="http://www.w3.org/2000/svg" xmlns:xlink="http://www.w3.org/1999/xlink" x="0px" y="0px"
	 viewBox="0 0 38 25" style="enable-background:new 0 0 38 25;" xml:space="preserve">
<style type="text/css">
	.st0{fill-rule:evenodd;clip-rule:evenodd;fill:#5388C6;}
	.st1{fill-rule:evenodd;clip-rule:evenodd;fill:#FFFFFF;}
	.st2{fill-rule:evenodd;clip-rule:evenodd;}
</style>
<path class="st0" d="M1,21.41c2.35-1.58,3.93-3.16,5.16-4.74c-0.88-0.33-2.8-0.93-2.8-2.37v-2.12v-2.12c0-1.44,1.93-2.04,2.8-2.37
	C4.93,6.1,3.35,4.52,1,2.94c3.21-1.55,6.68-2.19,8.18-1.85c2.69,0.6,4.43,2.05,5.65,3.47c7.87-1.32,17.04-0.03,22.22,7.61
	c-5.18,7.65-14.35,8.93-22.22,7.61c-1.22,1.42-2.96,2.87-5.65,3.47C7.68,23.6,4.21,22.95,1,21.41"/>
<path class="st1" d="M16.68,12.17c0,3.25,2.78,5.89,6.21,5.89s6.21-2.64,6.21-5.89s-2.78-5.89-6.21-5.89S16.68,8.92,16.68,12.17"/>
<path class="st2" d="M22.11,10.48c0-0.4,0.25-0.73,0.61-0.83v1.73C22.33,11.15,22.11,10.91,22.11,10.48z M23.92,13.83
	c0,0.47-0.32,0.73-0.69,0.81v-1.77C23.67,13.1,23.92,13.35,23.92,13.83z M22.73,16.64h0.5v-0.85c0.92-0.11,1.66-0.79,1.66-1.96
	c0-1.28-0.72-1.75-1.57-2.16c-0.03-0.01-0.06-0.02-0.09-0.04V9.65c0.5,0.14,0.8,0.64,0.8,0.64l0.72-0.76c0,0-0.54-0.89-1.52-1.03
	V7.64h-0.5v0.85c-0.99,0.13-1.59,1.05-1.59,1.99c0,1.23,0.81,1.79,1.59,2.16v2.02c-0.71-0.15-1.09-1.02-1.09-1.02l-0.74,0.75
	c0,0,0.6,1.29,1.84,1.42L22.73,16.64L22.73,16.64z"/>
</svg>
