<?xml version="1.0" encoding="utf-8"?>
<!-- Generator: Adobe Illustrator 24.1.0, SVG Export Plug-In . SVG Version: 6.00 Build 0)  -->
<svg version="1.1" id="Laag_1" xmlns="http://www.w3.org/2000/svg" xmlns:xlink="http://www.w3.org/1999/xlink" x="0px" y="0px"
	 viewBox="0 0 45 70" style="enable-background:new 0 0 45 70;" xml:space="preserve">
<style type="text/css">
	.st0{fill-rule:evenodd;clip-rule:evenodd;fill:#5388C6;}
	.st1{fill-rule:evenodd;clip-rule:evenodd;fill:#FFFFFF;}
	.st2{fill-rule:evenodd;clip-rule:evenodd;}
</style>
<path class="st0" d="M40,70c-3.02-4.47-6.04-7.48-9.07-9.83c-0.63,1.67-1.79,5.34-4.53,5.34h-4.05l-4.05,0
	c-2.75,0-3.9-3.66-4.53-5.34C10.75,62.52,7.72,65.53,4.7,70c-2.95-6.1-4.18-12.71-3.53-15.57c1.16-5.12,3.92-8.44,6.63-10.76
	C5.29,28.69,7.74,11.24,22.35,1.37c14.62,9.87,17.07,27.31,14.55,42.3c2.71,2.32,5.48,5.64,6.63,10.76C44.18,57.29,42.96,63.9,40,70
	"/>
<path class="st1" d="M22.5,41C28.85,41,34,35.85,34,29.5C34,23.15,28.85,18,22.5,18S11,23.15,11,29.5C11,35.85,16.15,41,22.5,41"/>
<path class="st2" d="M19.66,25.62c0-0.92,0.74-1.7,1.84-1.94v4.04C20.31,27.18,19.66,26.64,19.66,25.62z M25.08,33.45
	c0,1.09-0.96,1.7-2.06,1.89V31.2C24.34,31.75,25.08,32.31,25.08,33.45z M21.51,40h1.51v-1.99c2.75-0.26,4.98-1.84,4.98-4.56
	c0-2.98-2.16-4.09-4.72-5.04c-0.1-0.02-0.19-0.05-0.26-0.09v-4.64c1.51,0.33,2.4,1.49,2.4,1.49l2.16-1.77c0,0-1.63-2.08-4.55-2.41
	V19h-1.51v1.99c-2.97,0.31-4.77,2.46-4.77,4.64c0,2.86,2.42,4.19,4.77,5.04v4.71c-2.13-0.35-3.28-2.39-3.28-2.39L16,34.73
	c0,0,1.8,3,5.51,3.31V40z"/>
</svg>
