<?xml version="1.0" encoding="utf-8"?>
<!-- Generator: Adobe Illustrator 24.1.0, SVG Export Plug-In . SVG Version: 6.00 Build 0)  -->
<svg version="1.1" id="Laag_1" xmlns="http://www.w3.org/2000/svg" xmlns:xlink="http://www.w3.org/1999/xlink" x="0px" y="0px"
	 viewBox="0 0 22 13" style="enable-background:new 0 0 22 13;" xml:space="preserve">
<style type="text/css">
	.st0{fill:#FFFFFF;}
</style>
<path class="st0" d="M20.86,5.94c-0.08-0.1-0.36-0.45-0.84-0.92C19.4,4.41,18.72,3.85,18,3.35c-0.99-0.68-2.04-1.23-3.13-1.62
	C13.54,1.24,12.14,1,10.74,1c-1.36,0-2.7,0.24-3.97,0.72C5.74,2.11,4.74,2.65,3.81,3.33C2.2,4.5,1.29,5.73,1.12,5.96
	c-0.16,0.22-0.16,0.52,0,0.75c0.17,0.23,1.09,1.45,2.69,2.63c0.93,0.68,1.93,1.22,2.95,1.61c1.28,0.48,2.61,0.72,3.97,0.72
	c1.41,0,2.8-0.24,4.14-0.73C15.95,10.55,17,10.01,18,9.32c0.72-0.5,1.4-1.06,2.02-1.67c0.48-0.47,0.76-0.82,0.84-0.92
	C21.05,6.5,21.05,6.17,20.86,5.94z M6.22,8.36c0.2,0.48,0.47,0.92,0.81,1.32C6.17,9.34,5.35,8.88,4.56,8.3
	C4.01,7.9,3.54,7.48,3.17,7.12c-0.44-0.43-0.44-1.14,0-1.57c0.37-0.37,0.84-0.78,1.39-1.19c0.79-0.58,1.61-1.04,2.46-1.37
	c-0.33,0.4-0.6,0.84-0.81,1.32c-0.26,0.64-0.4,1.32-0.4,2.02C5.81,7.04,5.95,7.72,6.22,8.36z M11,8.11c-0.97,0-1.76-0.8-1.76-1.78
	S10.03,4.55,11,4.55s1.76,0.8,1.76,1.78C12.76,7.32,11.97,8.11,11,8.11z M18.7,7.15c-0.38,0.35-0.86,0.74-1.41,1.12
	c-0.69,0.48-1.41,0.88-2.14,1.19c0.26-0.34,0.47-0.71,0.64-1.11c0.27-0.64,0.41-1.32,0.41-2.03c0-0.7-0.14-1.38-0.41-2.03
	c-0.17-0.4-0.38-0.77-0.64-1.11c0.73,0.32,1.44,0.72,2.14,1.19c0.56,0.38,1.03,0.77,1.41,1.12C19.18,5.95,19.18,6.71,18.7,7.15z"/>
</svg>
