<?xml version="1.0" encoding="utf-8"?>
<!-- Generator: Adobe Illustrator 24.1.0, SVG Export Plug-In . SVG Version: 6.00 Build 0)  -->
<svg version="1.1" id="Visa" xmlns="http://www.w3.org/2000/svg" xmlns:xlink="http://www.w3.org/1999/xlink" x="0px" y="0px"
	 viewBox="0 0 62.8 28.7" style="enable-background:new 0 0 62.8 28.7;" xml:space="preserve">
<style type="text/css">
	.st0{opacity:0.6;}
	.st1{fill-rule:evenodd;clip-rule:evenodd;fill:#FFFFFF;}
</style>
<g class="st0">
	<polygon class="st1" points="25.5,6.2 22.6,22.8 27.2,22.8 30,6.2 	"/>
	<path class="st1" d="M19.2,6.2l-4.1,11.4l-0.5-2.5l-1.5-7.5c0,0-0.2-1.5-2.1-1.5h-0.4H4.2L4.1,6.4c0,0,0,0,0.1,0
		C4.5,6.5,6.5,7,8.7,8.5l3.7,14.2H17l6.9-16.6L19.2,6.2z"/>
	<path class="st1" d="M53.8,6.2h-4.6c-1.5,0-1.9,1.2-1.9,1.2l-6.2,15.4h4.3l0.9-2.5h5.3l0.5,2.5h5.1L53.8,6.2z M47.9,17.7l2.4-6.4
		l1.3,6.4H47.9z"/>
	<path class="st1" d="M36,10.9c0-1.8,4-1.6,5.8-0.6l0.6-3.4c0,0-1.8-0.7-3.7-0.7c-2,0-6.9,0.9-6.9,5.3c0,4.1,5.7,4.2,5.7,6.4
		s-5.1,1.8-6.8,0.4L30,21.9c0,0,1.8,0.9,4.7,0.9c2.8,0,7.1-1.5,7.1-5.5C41.7,13.1,36,12.7,36,10.9z"/>
</g>
</svg>
