<?xml version="1.0" encoding="UTF-8"?>
<!DOCTYPE svg PUBLIC "-//W3C//DTD SVG 1.1//EN" "http://www.w3.org/Graphics/SVG/1.1/DTD/svg11.dtd">
<!-- Creator: CorelDRAW 2018 (64-Bit) -->
<svg xmlns="http://www.w3.org/2000/svg" xml:space="preserve" width="227px" height="227px" version="1.1" style="shape-rendering:geometricPrecision; text-rendering:geometricPrecision; image-rendering:optimizeQuality; fill-rule:evenodd; clip-rule:evenodd"
viewBox="0 0 1.292 1.292"
 xmlns:xlink="http://www.w3.org/1999/xlink">
 <defs>
  <style type="text/css">
   <![CDATA[
    .fil2 {fill:#FEFEFE;fill-rule:nonzero}
    .fil0 {fill:#FEFEFE;fill-rule:nonzero}
    .fil1 {fill:#332C2B;fill-rule:nonzero}
   ]]>
  </style>
 </defs>
 <g id="图层_x0020_1">
  <metadata id="CorelCorpID_0Corel-Layer"/>
  <g id="_2418045498160">
   <g>
    <path class="fil0" d="M0.974 0.452l0 0c-0.013,-0.061 -0.207,-0.124 -0.224,-0.095 0.006,0.018 0.096,0.021 0.181,0.093 -0.08,-0.052 -0.204,-0.067 -0.265,-0.071l-0.02 -0.001 -0.001 0 0 0 -0.02 0.001c-0.06,0.004 -0.185,0.019 -0.265,0.071 0.085,-0.072 0.176,-0.075 0.182,-0.093 -0.018,-0.029 -0.212,0.034 -0.224,0.095 0,0 -0.102,0.197 -0.086,0.385 0.06,0.086 0.186,0.112 0.221,0.103 0.034,-0.043 0.039,-0.055 0.039,-0.055 0,0 -0.096,-0.039 -0.12,-0.083 0.051,0.027 0.098,0.074 0.252,0.079l0.041 0c0.154,-0.005 0.202,-0.052 0.253,-0.079 -0.024,0.044 -0.118,0.083 -0.118,0.083 0,0 0.005,0.012 0.039,0.055 0.034,0.009 0.161,-0.017 0.221,-0.103 0.015,-0.188 -0.086,-0.385 -0.086,-0.385z"/>
    <path class="fil1" d="M0.444 0.691c0,-0.046 0.027,-0.079 0.074,-0.079 0.046,0 0.069,0.054 0.069,0.079 0,0.021 -0.023,0.079 -0.069,0.079 -0.047,0 -0.074,-0.032 -0.074,-0.079z"/>
    <path class="fil1" d="M0.844 0.691c0,-0.046 -0.028,-0.079 -0.074,-0.079 -0.047,0 -0.069,0.054 -0.069,0.079 0,0.021 0.022,0.079 0.069,0.079 0.046,0 0.074,-0.032 0.074,-0.079z"/>
   </g>
   <g>
    <path class="fil2" d="M0.646 1.292c-0.179,0 -0.34,-0.073 -0.457,-0.19 -0.117,-0.116 -0.189,-0.278 -0.189,-0.456l0 0c0,-0.179 0.072,-0.34 0.189,-0.457 0.115,-0.114 0.272,-0.186 0.447,-0.189l0 0 0.01 0c0.178,0 0.34,0.072 0.456,0.189 0.117,0.117 0.19,0.278 0.19,0.457l0 0 0 0c0,0.178 -0.073,0.34 -0.19,0.456 -0.116,0.117 -0.278,0.19 -0.456,0.19zm-0.422 -0.224c0.108,0.108 0.257,0.175 0.422,0.175 0.165,0 0.314,-0.067 0.422,-0.175 0.108,-0.108 0.175,-0.257 0.175,-0.422 0,-0.165 -0.067,-0.314 -0.175,-0.422 -0.108,-0.108 -0.257,-0.175 -0.421,-0.175l-0.001 0c-0.165,0 -0.314,0.067 -0.422,0.175 -0.108,0.108 -0.175,0.257 -0.175,0.422l0 0c0,0.165 0.067,0.314 0.175,0.422zm1.019 -0.422l0 0 0 0z"/>
   </g>
  </g>
 </g>
</svg>
